<svg width="16" height="17" viewBox="0 0 16 17" fill="none" xmlns="http://www.w3.org/2000/svg">
<path d="M5.47259 4.4177C5.4101 4.47968 5.36051 4.55341 5.32666 4.63465C5.29282 4.71589 5.27539 4.80302 5.27539 4.89103C5.27539 4.97904 5.29282 5.06618 5.32666 5.14742C5.36051 5.22866 5.4101 5.30239 5.47259 5.36436L8.52592 8.4177C8.58841 8.47967 8.638 8.55341 8.67185 8.63465C8.7057 8.71589 8.72312 8.80302 8.72312 8.89103C8.72312 8.97904 8.7057 9.06618 8.67185 9.14742C8.638 9.22866 8.58841 9.30239 8.52592 9.36437L5.47259 12.4177C5.4101 12.4797 5.36051 12.5534 5.32666 12.6346C5.29282 12.7159 5.27539 12.803 5.27539 12.891C5.27539 12.979 5.29282 13.0662 5.32666 13.1474C5.36051 13.2287 5.4101 13.3024 5.47259 13.3644C5.5975 13.4885 5.76647 13.5582 5.94259 13.5582C6.11871 13.5582 6.28768 13.4885 6.41259 13.3644L9.47259 10.3044C9.84712 9.92936 10.0575 9.42103 10.0575 8.89103C10.0575 8.36103 9.84712 7.8527 9.47259 7.4777L6.41259 4.4177C6.28768 4.29353 6.11871 4.22384 5.94259 4.22384C5.76647 4.22384 5.5975 4.29353 5.47259 4.4177Z" fill="#7B7B7B"/>
</svg>
