<svg width="16" height="17" viewBox="0 0 16 17" fill="none" xmlns="http://www.w3.org/2000/svg">
<path d="M12.1405 6.6972C12.0786 6.63471 12.0048 6.58512 11.9236 6.55127C11.8423 6.51743 11.7552 6.5 11.6672 6.5C11.5792 6.5 11.4921 6.51743 11.4108 6.55127C11.3296 6.58512 11.2558 6.63471 11.1939 6.6972L8.14053 9.75053C8.07855 9.81302 8.00482 9.86261 7.92358 9.89646C7.84234 9.93031 7.7552 9.94773 7.6672 9.94773C7.57919 9.94773 7.49205 9.93031 7.41081 9.89646C7.32957 9.86261 7.25584 9.81302 7.19386 9.75053L4.14053 6.6972C4.07855 6.63471 4.00482 6.58512 3.92358 6.55127C3.84234 6.51743 3.7552 6.5 3.6672 6.5C3.57919 6.5 3.49205 6.51743 3.41081 6.55127C3.32957 6.58512 3.25584 6.63471 3.19386 6.6972C3.06969 6.82211 3 6.99108 3 7.1672C3 7.34332 3.06969 7.51229 3.19386 7.6372L6.25386 10.6972C6.62886 11.0717 7.13719 11.2821 7.6672 11.2821C8.1972 11.2821 8.70553 11.0717 9.08053 10.6972L12.1405 7.6372C12.2647 7.51229 12.3344 7.34332 12.3344 7.1672C12.3344 6.99108 12.2647 6.82211 12.1405 6.6972Z" fill="#1D2229"/>
</svg>
