<svg width="48" height="48" viewBox="0 0 48 48" fill="none" xmlns="http://www.w3.org/2000/svg">
<rect x="0.5" y="0.5" width="47" height="47" rx="23.5" fill="#F3F4F7"/>
<rect x="0.5" y="0.5" width="47" height="47" rx="23.5" stroke="#DDDEE3"/>
<path d="M25.8614 28.8644C25.9239 28.8024 25.9735 28.7287 26.0073 28.6475C26.0412 28.5662 26.0586 28.4791 26.0586 28.3911C26.0586 28.3031 26.0412 28.2159 26.0073 28.1347C25.9735 28.0534 25.9239 27.9797 25.8614 27.9177L22.8081 24.8644C22.7456 24.8024 22.696 24.7287 22.6621 24.6475C22.6283 24.5662 22.6109 24.4791 22.6109 24.3911C22.6109 24.3031 22.6283 24.2159 22.6621 24.1347C22.696 24.0534 22.7456 23.9797 22.8081 23.9177L25.8614 20.8644C25.9239 20.8024 25.9735 20.7287 26.0073 20.6475C26.0412 20.5662 26.0586 20.4791 26.0586 20.3911C26.0586 20.3031 26.0412 20.2159 26.0073 20.1347C25.9735 20.0534 25.9239 19.9797 25.8614 19.9177C25.7365 19.7936 25.5675 19.7239 25.3914 19.7239C25.2153 19.7239 25.0463 19.7936 24.9214 19.9177L21.8614 22.9777C21.4869 23.3527 21.2765 23.8611 21.2765 24.3911C21.2765 24.9211 21.4869 25.4294 21.8614 25.8044L24.9214 28.8644C25.0463 28.9886 25.2153 29.0583 25.3914 29.0583C25.5675 29.0583 25.7365 28.9886 25.8614 28.8644Z" fill="#1D2229"/>
</svg>
