<svg width="48" height="48" viewBox="0 0 48 48" fill="none" xmlns="http://www.w3.org/2000/svg">
<rect x="0.5" y="0.5" width="47" height="47" rx="23.5" fill="#F3F4F7"/>
<rect x="0.5" y="0.5" width="47" height="47" rx="23.5" stroke="#DDDEE3"/>
<path d="M21.4736 19.9177C21.4111 19.9797 21.3615 20.0534 21.3276 20.1346C21.2938 20.2159 21.2764 20.303 21.2764 20.391C21.2764 20.479 21.2938 20.5662 21.3276 20.6474C21.3615 20.7287 21.4111 20.8024 21.4736 20.8644L24.5269 23.9177C24.5894 23.9797 24.639 24.0534 24.6728 24.1346C24.7067 24.2159 24.7241 24.303 24.7241 24.391C24.7241 24.479 24.7067 24.5662 24.6728 24.6474C24.639 24.7287 24.5894 24.8024 24.5269 24.8644L21.4736 27.9177C21.4111 27.9797 21.3615 28.0534 21.3276 28.1346C21.2938 28.2159 21.2764 28.303 21.2764 28.391C21.2764 28.479 21.2938 28.5662 21.3276 28.6474C21.3615 28.7287 21.4111 28.8024 21.4736 28.8644C21.5985 28.9885 21.7674 29.0582 21.9436 29.0582C22.1197 29.0582 22.2887 28.9885 22.4136 28.8644L25.4736 25.8044C25.8481 25.4294 26.0585 24.921 26.0585 24.391C26.0585 23.861 25.8481 23.3527 25.4736 22.9777L22.4136 19.9177C22.2887 19.7935 22.1197 19.7238 21.9436 19.7238C21.7674 19.7238 21.5985 19.7935 21.4736 19.9177Z" fill="#1D2229"/>
</svg>
