<svg width="10" height="5" viewBox="0 0 10 5" fill="none" xmlns="http://www.w3.org/2000/svg">
<path d="M9.64053 0.197199C9.57855 0.134713 9.50482 0.0851169 9.42358 0.0512711C9.34234 0.0174253 9.2552 0 9.1672 0C9.07919 0 8.99205 0.0174253 8.91081 0.0512711C8.82957 0.0851169 8.75584 0.134713 8.69386 0.197199L5.64053 3.25053C5.57855 3.31302 5.50482 3.36261 5.42358 3.39646C5.34234 3.43031 5.2552 3.44773 5.1672 3.44773C5.07919 3.44773 4.99205 3.43031 4.91081 3.39646C4.82957 3.36261 4.75584 3.31302 4.69386 3.25053L1.64053 0.197199C1.57855 0.134713 1.50482 0.0851169 1.42358 0.0512711C1.34234 0.0174253 1.2552 0 1.1672 0C1.07919 0 0.99205 0.0174253 0.91081 0.0512711C0.829571 0.0851169 0.755837 0.134713 0.693862 0.197199C0.569694 0.322107 0.5 0.491075 0.5 0.667199C0.5 0.843323 0.569694 1.01229 0.693862 1.1372L3.75386 4.1972C4.12886 4.57173 4.63719 4.78211 5.1672 4.78211C5.6972 4.78211 6.20553 4.57173 6.58053 4.1972L9.64053 1.1372C9.7647 1.01229 9.83439 0.843323 9.83439 0.667199C9.83439 0.491075 9.7647 0.322107 9.64053 0.197199Z" fill="white"/>
</svg>
