<svg width="6" height="10" viewBox="0 0 6 10" fill="none" xmlns="http://www.w3.org/2000/svg">
<path d="M0.473566 0.4177C0.41108 0.479675 0.361484 0.553409 0.327638 0.634647C0.293792 0.715887 0.276367 0.803024 0.276367 0.891032C0.276367 0.97904 0.293792 1.06618 0.327638 1.14742C0.361484 1.22866 0.41108 1.30239 0.473566 1.36436L3.5269 4.4177C3.58938 4.47967 3.63898 4.55341 3.67283 4.63465C3.70667 4.71589 3.7241 4.80302 3.7241 4.89103C3.7241 4.97904 3.70667 5.06618 3.67283 5.14742C3.63898 5.22866 3.58938 5.30239 3.5269 5.36437L0.473566 8.4177C0.41108 8.47967 0.361484 8.55341 0.327638 8.63465C0.293792 8.71589 0.276367 8.80302 0.276367 8.89103C0.276367 8.97904 0.293793 9.06618 0.327638 9.14742C0.361484 9.22866 0.41108 9.30239 0.473566 9.36437C0.598474 9.48853 0.767442 9.55823 0.943566 9.55823C1.11969 9.55823 1.28866 9.48853 1.41357 9.36437L4.47357 6.30437C4.8481 5.92936 5.05847 5.42103 5.05847 4.89103C5.05847 4.36103 4.8481 3.8527 4.47357 3.4777L1.41357 0.4177C1.28866 0.293532 1.11969 0.223837 0.943566 0.223837C0.767442 0.223837 0.598474 0.293532 0.473566 0.4177Z" fill="#BEBEBE"/>
</svg>
