<svg width="16" height="16" viewBox="0 0 16 16" fill="none" xmlns="http://www.w3.org/2000/svg">
<path d="M7.99966 3.33331C8.92013 3.33331 9.66632 2.58713 9.66632 1.66666C9.66632 0.746187 8.92013 0 7.99966 0C7.0792 0 6.33301 0.746187 6.33301 1.66666C6.33301 2.58713 7.0792 3.33331 7.99966 3.33331Z" fill="white"/>
<path d="M7.99966 9.66666C8.92013 9.66666 9.66632 8.92047 9.66632 8C9.66632 7.07953 8.92013 6.33334 7.99966 6.33334C7.0792 6.33334 6.33301 7.07953 6.33301 8C6.33301 8.92047 7.0792 9.66666 7.99966 9.66666Z" fill="white"/>
<path d="M7.99966 16C8.92013 16 9.66632 15.2538 9.66632 14.3333C9.66632 13.4129 8.92013 12.6667 7.99966 12.6667C7.0792 12.6667 6.33301 13.4129 6.33301 14.3333C6.33301 15.2538 7.0792 16 7.99966 16Z" fill="white"/>
</svg>
