<svg width="16" height="16" viewBox="0 0 16 16" fill="none" xmlns="http://www.w3.org/2000/svg">
<path d="M8.00064 3.33331C8.92111 3.33331 9.6673 2.58713 9.6673 1.66666C9.6673 0.746187 8.92111 0 8.00064 0C7.08017 0 6.33398 0.746187 6.33398 1.66666C6.33398 2.58713 7.08017 3.33331 8.00064 3.33331Z" fill="black"/>
<path d="M8.00064 9.66666C8.92111 9.66666 9.6673 8.92047 9.6673 8C9.6673 7.07953 8.92111 6.33334 8.00064 6.33334C7.08017 6.33334 6.33398 7.07953 6.33398 8C6.33398 8.92047 7.08017 9.66666 8.00064 9.66666Z" fill="black"/>
<path d="M8.00064 16C8.92111 16 9.6673 15.2538 9.6673 14.3333C9.6673 13.4129 8.92111 12.6667 8.00064 12.6667C7.08017 12.6667 6.33398 13.4129 6.33398 14.3333C6.33398 15.2538 7.08017 16 8.00064 16Z" fill="black"/>
</svg>
