<svg width="10" height="9" viewBox="0 0 10 9" fill="none" xmlns="http://www.w3.org/2000/svg">
<path d="M3.22883 8.5C3.08828 8.50006 2.94911 8.4694 2.81927 8.40977C2.68943 8.35013 2.57149 8.2627 2.47219 8.15247L0.184609 5.6183C-0.0615362 5.34543 -0.0615362 4.90311 0.184609 4.63024C0.430832 4.35746 0.829961 4.35746 1.07618 4.63024L3.22883 7.01582L8.92382 0.704585C9.17004 0.431805 9.56917 0.431805 9.81539 0.704585C10.0615 0.977453 10.0615 1.41977 9.81539 1.69264L3.98547 8.15247C3.88617 8.2627 3.76823 8.35013 3.63839 8.40977C3.50855 8.4694 3.36938 8.50006 3.22883 8.5Z" fill="#4CAF50"/>
</svg>
