<svg width="16" height="17" viewBox="0 0 16 17" fill="none" xmlns="http://www.w3.org/2000/svg">
<path d="M14.4203 7.91675C14.2655 7.91675 14.117 7.97821 14.0076 8.0876C13.8981 8.19699 13.8367 8.34536 13.8367 8.50007C13.8414 9.85644 13.3747 11.1724 12.5162 12.2229C11.6578 13.2734 10.4609 13.9934 9.13024 14.2596C7.79955 14.5259 6.41764 14.322 5.22071 13.6828C4.02378 13.0435 3.08613 12.0086 2.56804 10.755C2.04995 9.50134 1.98359 8.10676 2.38028 6.80961C2.77698 5.51247 3.61211 4.3933 4.74293 3.6434C5.87375 2.89349 7.23006 2.55941 8.58003 2.69825C9.93 2.83709 11.1898 3.44023 12.1441 4.40459C12.1249 4.40966 12.1054 4.41375 12.0858 4.41684H10.3349C10.1801 4.41684 10.0317 4.47829 9.92222 4.58769C9.81277 4.69708 9.75128 4.84545 9.75128 5.00016C9.75128 5.15486 9.81277 5.30323 9.92222 5.41262C10.0317 5.52202 10.1801 5.58347 10.3349 5.58347H12.0858C12.5501 5.58347 12.9955 5.3991 13.3238 5.07092C13.6522 4.74274 13.8367 4.29764 13.8367 3.83352V2.08356C13.8367 1.92886 13.7752 1.78049 13.6657 1.67109C13.5563 1.5617 13.4078 1.50024 13.253 1.50024C13.0982 1.50024 12.9498 1.5617 12.8403 1.67109C12.7309 1.78049 12.6694 1.92886 12.6694 2.08356V3.28812C11.4745 2.22037 9.94908 1.59484 8.34816 1.51605C6.74723 1.43727 5.16775 1.91 3.87364 2.85526C2.57953 3.80051 1.64918 5.16103 1.23807 6.70946C0.826963 8.25789 0.959987 9.90043 1.61492 11.3626C2.26985 12.8248 3.40702 14.0181 4.83639 14.743C6.26576 15.4679 7.90076 15.6806 9.46816 15.3455C11.0356 15.0103 12.4404 14.1478 13.448 12.9018C14.4556 11.6559 15.0048 10.1021 15.0039 8.50007C15.0039 8.34536 14.9424 8.19699 14.833 8.0876C14.7235 7.97821 14.5751 7.91675 14.4203 7.91675Z" fill="#989AA1"/>
<path d="M7.60538 5.50024C7.44586 5.50024 7.29287 5.55299 7.18008 5.64687C7.06728 5.74075 7.00391 5.86809 7.00391 6.00086V8.50394C7.00394 8.6367 7.06733 8.76401 7.18014 8.85787L8.98457 10.3597C9.09801 10.4509 9.24995 10.5014 9.40765 10.5002C9.56536 10.4991 9.71622 10.4464 9.82774 10.3536C9.93926 10.2608 10.0025 10.1352 10.0039 10.004C10.0053 9.87272 9.94463 9.74626 9.83506 9.65185L8.20686 8.29668V6.00086C8.20686 5.86809 8.14349 5.74075 8.03069 5.64687C7.91789 5.55299 7.76491 5.50024 7.60538 5.50024Z" fill="#989AA1"/>
</svg>
