<svg width="14" height="14" viewBox="0 0 14 14" fill="none" xmlns="http://www.w3.org/2000/svg">
<path d="M9.91668 10.4976V13.9998H12.25C13.2165 13.9998 14 13.2158 14 12.2487V6.92481C14.0001 6.62157 13.8823 6.33018 13.6716 6.1123L8.71443 0.749861C7.83975 -0.197096 6.36352 -0.255238 5.41715 0.619979C5.37219 0.661546 5.32889 0.704873 5.28735 0.749861L0.338926 6.11055C0.121763 6.32934 -7.83728e-05 6.62521 3.78222e-08 6.93356V12.2487C3.78222e-08 13.2158 0.783508 13.9998 1.75 13.9998H4.08332V10.4976C4.09423 8.90598 5.37849 7.60623 6.92907 7.5688C8.53152 7.53011 9.90445 8.85199 9.91668 10.4976Z" fill="#584A2D"/>
<path d="M7 8.7467C6.03351 8.7467 5.25 9.5307 5.25 10.4978V14H8.75V10.4978C8.75 9.5307 7.96649 8.7467 7 8.7467Z" fill="#584A2D"/>
</svg>
