<svg width="16" height="16" viewBox="0 0 16 16" fill="none" xmlns="http://www.w3.org/2000/svg">
<g clip-path="url(#clip0_32_376)">
<path d="M0.999807 1.08868C-0.257526 2.39468 -0.000192679 3.78201 -0.000192679 7.99668C-0.000192679 11.4967 -0.610859 15.0053 2.58514 15.8313C3.58314 16.088 12.4258 16.088 13.4225 15.83C14.7531 15.4867 15.8358 14.4073 15.9838 12.5253C16.0045 12.2627 16.0045 3.73534 15.9831 3.46734C15.8258 1.46268 14.5918 0.307344 12.9658 0.0733439C12.5931 0.0193439 12.5185 0.00334392 10.6065 1.05854e-05C3.82447 0.00334392 2.33781 -0.298656 0.999807 1.08868Z" fill="url(#paint0_linear_32_376)"/>
<path d="M7.99789 2.09268C5.57723 2.09268 3.27856 1.87734 2.40056 4.13068C2.03789 5.06134 2.09056 6.27001 2.09056 8.00068C2.09056 9.51934 2.04189 10.9467 2.40056 11.87C3.27656 14.1247 5.59389 13.9087 7.99656 13.9087C10.3146 13.9087 12.7046 14.15 13.5932 11.87C13.9566 10.93 13.9032 9.73934 13.9032 8.00068C13.9032 5.69268 14.0306 4.20268 12.9112 3.08401C11.7779 1.95068 10.2452 2.09268 7.99523 2.09268H7.99789ZM7.46856 3.15734C12.5179 3.14934 13.1606 2.58801 12.8059 10.386C12.6799 13.144 10.5799 12.8413 7.99856 12.8413C3.29189 12.8413 3.15656 12.7067 3.15656 7.99801C3.15656 3.23468 3.52989 3.16001 7.46856 3.15601V3.15734ZM11.1512 4.13801C10.7599 4.13801 10.4426 4.45534 10.4426 4.84668C10.4426 5.23801 10.7599 5.55534 11.1512 5.55534C11.5426 5.55534 11.8599 5.23801 11.8599 4.84668C11.8599 4.45534 11.5426 4.13801 11.1512 4.13801ZM7.99789 4.96668C6.32256 4.96668 4.96456 6.32534 4.96456 8.00068C4.96456 9.67601 6.32256 11.034 7.99789 11.034C9.67323 11.034 11.0306 9.67601 11.0306 8.00068C11.0306 6.32534 9.67323 4.96668 7.99789 4.96668ZM7.99789 6.03134C10.6012 6.03134 10.6046 9.97001 7.99789 9.97001C5.39523 9.97001 5.39123 6.03134 7.99789 6.03134Z" fill="#FAFAFA"/>
</g>
<defs>
<linearGradient id="paint0_linear_32_376" x1="1.03049" y1="14.9781" x2="15.9008" y2="2.10799" gradientUnits="userSpaceOnUse">
<stop stop-color="#FFDD55"/>
<stop offset="0.5" stop-color="#FF543E"/>
<stop offset="1" stop-color="#C837AB"/>
</linearGradient>
<clipPath id="clip0_32_376">
<rect width="16" height="16" fill="white"/>
</clipPath>
</defs>
</svg>
