<svg width="12" height="12" viewBox="0 0 12 12" fill="none" xmlns="http://www.w3.org/2000/svg">
<g clip-path="url(#clip0_99_5235)">
<path d="M5.93174 2.0005C3.83974 2.035 2.07724 3.7635 2.00274 5.853C1.98002 6.44959 2.09181 7.04365 2.32983 7.59118C2.56784 8.1387 2.92599 8.62567 3.37774 9.016C3.77324 9.3595 3.99974 9.8875 3.99974 10.5C3.99974 11.327 4.67274 12 5.49974 12H6.49974C7.32674 12 7.99974 11.327 7.99974 10.5V10.3125C7.99974 9.8295 8.22724 9.3635 8.64074 8.9995C9.06742 8.62483 9.40933 8.16351 9.64367 7.64629C9.87801 7.12907 9.9994 6.56783 9.99974 6C10.0014 5.46894 9.8965 4.94294 9.69123 4.45314C9.48597 3.96335 9.18452 3.51971 8.80474 3.1485C8.03424 2.3905 7.01324 1.976 5.93174 2.0005ZM6.99974 10.5C6.99974 10.6326 6.94706 10.7598 6.85329 10.8536C6.75953 10.9473 6.63235 11 6.49974 11H5.49974C5.22374 11 4.99974 10.776 4.99974 10.4655C4.99902 10.3096 4.98615 10.1539 4.96124 10H7.02024C7.00688 10.1036 7.00004 10.208 6.99974 10.3125V10.5ZM7.98074 8.2485C7.73451 8.46355 7.52508 8.71739 7.36074 9H6.49974V6.908C6.79119 6.80496 7.04369 6.61439 7.2227 6.36235C7.4017 6.11032 7.49846 5.80913 7.49974 5.5C7.49974 5.36739 7.44706 5.24022 7.35329 5.14645C7.25953 5.05268 7.13235 5 6.99974 5C6.86713 5 6.73996 5.05268 6.64619 5.14645C6.55242 5.24022 6.49974 5.36739 6.49974 5.5C6.49974 5.63261 6.44706 5.75979 6.35329 5.85356C6.25953 5.94732 6.13235 6 5.99974 6C5.86713 6 5.73996 5.94732 5.64619 5.85356C5.55242 5.75979 5.49974 5.63261 5.49974 5.5C5.49974 5.36739 5.44706 5.24022 5.35329 5.14645C5.25953 5.05268 5.13235 5 4.99974 5C4.86713 5 4.73996 5.05268 4.64619 5.14645C4.55242 5.24022 4.49974 5.36739 4.49974 5.5C4.49974 6.151 4.91924 6.701 5.49974 6.908V9H4.62674C4.47302 8.72114 4.27203 8.47109 4.03274 8.261C3.69401 7.96825 3.42547 7.60306 3.247 7.19246C3.06853 6.78187 2.98471 6.33638 3.00174 5.889C3.05774 4.322 4.37974 3.026 5.94874 3.0005H5.99974C6.79274 3.0005 7.53824 3.305 8.10374 3.862C8.39758 4.15064 8.62872 4.49678 8.78272 4.87879C8.93672 5.26081 9.01027 5.67048 8.99878 6.0822C8.98728 6.49393 8.89098 6.89886 8.7159 7.27168C8.54082 7.64451 8.29073 7.97721 7.98124 8.249L7.98074 8.2485ZM8.39224 1.237L9.00974 0.232002C9.04395 0.175913 9.08892 0.127147 9.14205 0.0885127C9.19519 0.0498787 9.25545 0.0221406 9.31935 0.00689648C9.38326 -0.00834769 9.44955 -0.0107966 9.5144 -0.000309276C9.57926 0.0101781 9.6414 0.0333945 9.69724 0.0680024C9.81011 0.137464 9.89078 0.248895 9.92154 0.377808C9.95229 0.506722 9.9306 0.642571 9.86124 0.755502L9.24374 1.7605C9.20953 1.81658 9.16456 1.86535 9.11144 1.90399C9.05832 1.94264 8.99808 1.9704 8.93419 1.98569C8.8703 2.00097 8.80402 2.00348 8.73916 1.99307C8.6743 1.98265 8.61213 1.95952 8.55624 1.925C8.44337 1.85554 8.3627 1.74411 8.33194 1.6152C8.30119 1.48628 8.32288 1.34993 8.39224 1.237ZM11.7062 3.311L10.7397 3.747C10.6796 3.77666 10.614 3.7939 10.547 3.7977C10.4801 3.8015 10.413 3.79177 10.3498 3.76911C10.2867 3.74645 10.2287 3.71131 10.1795 3.66578C10.1302 3.62025 10.0906 3.56528 10.063 3.50412C10.0354 3.44296 10.0204 3.37688 10.0189 3.3098C10.0173 3.24272 10.0293 3.17603 10.0541 3.11369C10.0789 3.05135 10.116 2.99463 10.1632 2.94693C10.2104 2.89922 10.2667 2.8615 10.3287 2.836L11.2952 2.4C11.355 2.37285 11.4196 2.35778 11.4852 2.35566C11.5509 2.35354 11.6163 2.3644 11.6777 2.38763C11.7391 2.41086 11.7953 2.446 11.8431 2.49103C11.8909 2.53605 11.9294 2.59008 11.9562 2.65C12.0107 2.77082 12.0149 2.9083 11.968 3.03224C11.9211 3.15618 11.827 3.25644 11.7062 3.311ZM2.09674 0.755002C2.06122 0.699008 2.0372 0.636507 2.02606 0.571139C2.01493 0.505772 2.01691 0.438842 2.03189 0.374246C2.04686 0.30965 2.07454 0.248679 2.1133 0.194881C2.15207 0.141083 2.20115 0.0955328 2.25768 0.060882C2.31422 0.0262312 2.37708 0.00317198 2.44261 -0.00695356C2.50815 -0.0170791 2.57504 -0.0140686 2.63939 0.00190257C2.70375 0.0178738 2.76429 0.0464867 2.81748 0.0860759C2.87068 0.125665 2.91547 0.17544 2.94924 0.232502L3.56524 1.238C3.60169 1.29401 3.62655 1.35675 3.63834 1.42252C3.65013 1.48829 3.64862 1.55576 3.6339 1.62094C3.61917 1.68612 3.59153 1.74768 3.55261 1.802C3.51369 1.85631 3.46427 1.90227 3.40729 1.93717C3.3503 1.97206 3.2869 1.99518 3.22083 2.00515C3.15475 2.01513 3.08735 2.01176 3.0226 1.99524C2.95786 1.97873 2.89708 1.9494 2.84385 1.909C2.79063 1.86859 2.74605 1.81793 2.71274 1.76L2.09674 0.754502V0.755002ZM1.85524 3.5305C1.79787 3.64991 1.69547 3.74167 1.5705 3.78563C1.44554 3.8296 1.30824 3.82218 1.18874 3.765L0.289741 3.3345C0.170247 3.27723 0.0783758 3.17486 0.0343122 3.04988C-0.00975134 2.92491 -0.00240367 2.78756 0.054741 2.668C0.0828958 2.60865 0.122514 2.55546 0.171314 2.51149C0.220114 2.46751 0.277131 2.43363 0.339082 2.41179C0.401033 2.38995 0.466693 2.38057 0.532281 2.38421C0.597869 2.38786 0.662088 2.40444 0.721241 2.433L1.62024 2.8635C1.73974 2.92078 1.83161 3.02315 1.87567 3.14812C1.91973 3.27309 1.91239 3.41094 1.85524 3.5305Z" fill="black"/>
</g>
<defs>
<clipPath id="clip0_99_5235">
<rect width="12" height="12" fill="white"/>
</clipPath>
</defs>
</svg>
