<svg width="16" height="17" viewBox="0 0 16 17" fill="none" xmlns="http://www.w3.org/2000/svg">
<g clip-path="url(#clip0_2001_16)">
<path d="M4.66666 15.1667H3.33331C2.22875 15.1667 1.33331 14.2712 1.33331 13.1667V3.83334C1.33331 2.72878 2.22875 1.83334 3.33331 1.83334H4.66666C5.03484 1.83334 5.33331 1.53487 5.33331 1.16669C5.33331 0.7985 5.03484 0.5 4.66666 0.5H3.33331C1.49331 0.502219 0.00221875 1.99331 0 3.83334V13.1667C0.00221875 15.0067 1.49331 16.4978 3.33334 16.5H4.66669C5.03487 16.5 5.33334 16.2015 5.33334 15.8333C5.33334 15.4652 5.03484 15.1667 4.66666 15.1667Z" fill="#1D2229"/>
<path d="M15.334 7.83333L4.81602 7.85467C4.8745 7.74606 4.94763 7.64601 5.03337 7.55733L7.61937 4.97133C7.88421 4.71555 7.89156 4.29349 7.63577 4.02867C7.37999 3.76383 6.95793 3.75649 6.69312 4.01227C6.68756 4.01764 6.68209 4.02311 6.67671 4.02867L4.08937 6.61467C3.04834 7.65602 3.04834 9.34402 4.08937 10.3853L6.67537 12.9713C6.93115 13.2362 7.35321 13.2435 7.61802 12.9877C7.88287 12.7319 7.89018 12.3099 7.6344 12.045C7.62904 12.0395 7.62358 12.034 7.61802 12.0287L5.03202 9.44267C4.95741 9.36584 4.89228 9.28035 4.83802 9.18802L15.334 9.16667C15.7022 9.16667 16.0007 8.8682 16.0007 8.50002C16.0007 8.1318 15.7022 7.83333 15.334 7.83333Z" fill="#1D2229"/>
</g>
<defs>
<clipPath id="clip0_2001_16">
<rect width="16" height="16" fill="white" transform="translate(0 0.5)"/>
</clipPath>
</defs>
</svg>
