<svg width="176" height="43" viewBox="0 0 176 43" fill="none" xmlns="http://www.w3.org/2000/svg">
<g clip-path="url(#clip0_30_220)">
<path d="M40.6367 11.0529L41.619 8.14088H32.992L31.9884 11.0529H34.8284L32.3514 18.4711C30.9207 17.7271 29.2764 17.0257 27.4186 16.4093C26.0733 15.9842 25.0269 15.5591 24.2582 15.1552C23.4894 14.7514 22.8061 14.2837 22.2082 13.7736C20.8629 12.6683 20.2009 11.1592 20.2009 9.24617C20.2009 8.11962 20.4999 6.97182 21.1191 5.86653C21.7384 4.73999 22.5712 3.84726 23.6389 3.12457C24.9415 2.2956 26.3509 1.89174 27.8884 1.89174C29.8102 1.89174 31.6467 2.52941 33.3977 3.80475C33.654 3.99605 33.9529 4.25111 34.2305 4.48492L34.9993 2.18932C34.5295 1.84923 34.017 1.5304 33.5899 1.31784C31.8816 0.425111 29.8102 0 27.3972 0C23.8525 0 20.927 1.02027 18.6421 3.0608C16.3572 5.10133 15.2254 7.58823 15.2254 10.5215C15.2254 11.1167 15.2468 11.5418 15.2895 11.8181C15.3322 12.0944 15.4176 12.4983 15.5244 13.0509C16.1223 15.4528 17.19 17.3233 18.7275 18.7049C19.0051 18.96 19.3254 19.215 19.6884 19.4701L15.2254 33.0524L7.62339 11.0529H9.60932L8.62703 8.14088H0L0.982286 11.0529H2.6479L13.2395 43L21.3113 20.5116C22.8702 21.4256 24.8988 22.4034 27.3972 23.4661C28.4649 23.9125 29.4045 24.4014 30.1946 24.8903L24.1301 43H27.4613C31.1342 42.9787 34.1878 41.8309 36.6008 39.4928C39.0352 37.1547 40.231 34.2852 40.231 30.8843C40.231 29.7578 40.1029 28.6312 39.8253 27.526C39.1206 24.869 37.8607 22.6797 36.0456 21.0005C35.768 20.7454 35.4904 20.5116 35.1701 20.2565L38.2878 11.0529H40.6367ZM32.3514 38.8977C31.1983 39.9817 29.8102 40.6619 28.166 40.9382L32.8212 27.2071C33.5472 28.1849 34.081 29.3964 34.38 30.8206C34.5722 31.7133 34.679 32.4998 34.679 33.1799C34.679 35.518 33.9102 37.431 32.3514 38.8977Z" fill="#12171D"/>
<path d="M63.7631 22.1483L60.6881 14.39L57.7412 22.1058L54.3673 13.561H52.4668L56.9511 24.8902H57.5918L60.2824 17.8972L63.0584 24.8902H63.635L67.9912 13.561H67.0516L63.7631 22.1483Z" fill="#12171D"/>
<path d="M79.2455 15.0064C78.6903 14.475 78.0283 14.0712 77.2809 13.7736C76.5335 13.476 75.7007 13.3272 74.8252 13.3272C74.2487 13.3272 73.6721 13.391 73.1383 13.5398C72.6044 13.6886 72.1133 13.8799 71.6435 14.1137C71.1737 14.3688 70.768 14.6663 70.3836 15.0277C69.9992 15.389 69.6789 15.7716 69.4226 16.1967C69.1664 16.6219 68.9529 17.0895 68.8034 17.5784C68.6539 18.0672 68.5898 18.5774 68.5898 19.13C68.5898 19.6827 68.6539 20.1928 68.8034 20.7029C68.9529 21.2131 69.145 21.6807 69.4226 22.127C69.6789 22.5734 69.9992 22.9773 70.3836 23.3386C70.768 23.7 71.1737 24.0188 71.6435 24.2739C72.1133 24.5289 72.6044 24.7415 73.1383 24.869C73.6721 25.0178 74.2273 25.0816 74.8252 25.0816C75.4018 25.0816 75.9783 25.0178 76.5122 24.869C77.046 24.7202 77.5372 24.5289 78.007 24.2739C78.4768 24.0188 78.8825 23.7 79.2669 23.3386C79.6512 22.9773 79.9715 22.5734 80.2278 22.127C80.484 21.6807 80.6976 21.2131 80.8471 20.7029C80.9965 20.1928 81.0606 19.6614 81.0606 19.13C81.0606 18.3223 80.8898 17.5784 80.5695 16.8769C80.2491 16.1542 79.8007 15.5378 79.2455 15.0064ZM78.5622 21.2768C78.3913 21.9357 78.1351 22.5096 77.7934 22.9773C77.4518 23.4661 77.046 23.8275 76.5335 24.1038C76.0424 24.3801 75.4658 24.5077 74.8252 24.5077C74.1632 24.5077 73.5867 24.3801 73.0955 24.1038C72.6044 23.8275 72.1773 23.4661 71.8357 22.9773C71.494 22.4884 71.2377 21.9357 71.0883 21.2768C70.9174 20.6179 70.832 19.8952 70.832 19.13C70.832 18.3648 70.9174 17.6421 71.0883 17.0045C71.2591 16.3668 71.5153 15.8141 71.8357 15.3465C72.1773 14.8789 72.583 14.5176 73.0955 14.2625C73.5867 14.0074 74.1846 13.8799 74.8252 13.8799C75.4658 13.8799 76.0424 14.0074 76.5335 14.2625C77.0247 14.5176 77.4518 14.8789 77.7934 15.3465C78.1351 15.8141 78.3913 16.3668 78.5622 17.0045C78.733 17.6421 78.8184 18.3436 78.8184 19.13C78.8184 19.8952 78.733 20.6179 78.5622 21.2768Z" fill="#12171D"/>
<path d="M95.3458 19.1088C95.3458 18.301 95.1749 17.5571 94.8546 16.8557C94.5343 16.1542 94.0859 15.5378 93.5307 15.0064C92.9755 14.475 92.3135 14.0712 91.5661 13.7736C90.8187 13.476 89.9859 13.3272 89.1104 13.3272C88.5338 13.3272 87.9573 13.391 87.4234 13.5398C86.8896 13.6886 86.3984 13.8799 85.9286 14.1137C85.4588 14.3688 85.0531 14.6663 84.6687 15.0277C84.2844 15.389 83.9641 15.7716 83.7078 16.1967C83.4516 16.6219 83.238 17.0895 83.0885 17.5784C82.9391 18.0672 82.875 18.5774 82.875 19.13C82.875 19.6827 82.9391 20.1928 83.0885 20.7029C83.238 21.2131 83.4302 21.6807 83.7078 22.127C83.9641 22.5734 84.2844 22.9773 84.6687 23.3386C85.0531 23.7 85.4588 24.0188 85.9286 24.2739C86.3984 24.5289 86.8896 24.7415 87.4234 24.869C87.9573 25.0178 88.5125 25.0816 89.1104 25.0816C89.6869 25.0816 90.2635 25.0178 90.7973 24.869C91.3312 24.7202 91.8223 24.5289 92.2921 24.2739C92.7619 24.0188 93.1676 23.7 93.552 23.3386C93.9364 22.9773 94.2567 22.5734 94.513 22.127C94.7692 21.6807 94.9827 21.2131 95.1322 20.7029C95.2817 20.1715 95.3458 19.6614 95.3458 19.1088ZM92.8687 21.2768C92.6979 21.9357 92.4416 22.5096 92.0999 22.9773C91.7583 23.4661 91.3526 23.8275 90.8401 24.1038C90.3489 24.3801 89.7724 24.5077 89.1317 24.5077C88.4698 24.5077 87.8932 24.3801 87.4021 24.1038C86.9109 23.8275 86.4838 23.4661 86.1422 22.9773C85.8005 22.4884 85.5443 21.9357 85.3948 21.2768C85.2239 20.6179 85.1385 19.8952 85.1385 19.13C85.1385 18.3648 85.2239 17.6421 85.3948 17.0045C85.5656 16.3668 85.8219 15.8141 86.1422 15.3465C86.4838 14.8789 86.8896 14.5176 87.4021 14.2625C87.8932 14.0074 88.4911 13.8799 89.1317 13.8799C89.7724 13.8799 90.3489 14.0074 90.8401 14.2625C91.3312 14.5176 91.7583 14.8789 92.0999 15.3465C92.4416 15.8141 92.6979 16.3668 92.8687 17.0045C93.0395 17.6421 93.1249 18.3436 93.1249 19.13C93.1249 19.8952 93.0395 20.6179 92.8687 21.2768Z" fill="#12171D"/>
<path d="M106.536 14.9214C105.981 14.4538 105.276 14.0924 104.443 13.8799C103.611 13.6673 102.607 13.561 101.454 13.561H97.7168V24.8052H101.924C102.97 24.8052 103.909 24.6564 104.721 24.3589C105.532 24.0613 106.216 23.6574 106.771 23.126C107.326 22.6159 107.753 21.9995 108.031 21.2981C108.33 20.5966 108.458 19.8527 108.458 19.0662C108.458 18.2373 108.287 17.4721 107.967 16.7706C107.668 16.0692 107.177 15.4528 106.536 14.9214ZM105.874 21.213C105.639 21.8082 105.297 22.3183 104.892 22.7434C104.486 23.1473 103.995 23.4661 103.418 23.6787C102.863 23.8912 102.244 23.9975 101.603 23.9975H99.5959V14.39H101.625C102.287 14.39 102.906 14.4963 103.482 14.7301C104.038 14.9639 104.529 15.2827 104.934 15.7078C105.34 16.133 105.66 16.6218 105.895 17.1957C106.13 17.7696 106.237 18.4073 106.237 19.1087C106.237 19.8952 106.109 20.5966 105.874 21.213Z" fill="#12171D"/>
<path d="M116.806 19.8952C116.508 19.6189 116.166 19.3851 115.781 19.1512C115.397 18.9174 115.013 18.7049 114.607 18.4923C114.201 18.2798 113.817 18.0885 113.433 17.8759C113.048 17.6634 112.706 17.4721 112.408 17.2382C112.109 17.0257 111.874 16.7919 111.681 16.5368C111.511 16.303 111.404 16.0267 111.404 15.7291C111.404 15.5165 111.447 15.3252 111.532 15.1127C111.617 14.9001 111.746 14.7301 111.938 14.56C112.109 14.39 112.343 14.2625 112.6 14.1774C112.877 14.0712 113.176 14.0287 113.539 14.0287C113.945 14.0287 114.308 14.0924 114.607 14.1987C114.927 14.305 115.205 14.475 115.461 14.6663C115.696 14.8789 115.91 15.1127 116.08 15.389C116.251 15.6653 116.401 15.9842 116.508 16.3455L117.49 15.8991C117.212 15.0489 116.764 14.4113 116.144 13.9649C115.525 13.5185 114.671 13.306 113.603 13.306C113.005 13.306 112.493 13.391 112.023 13.5398C111.575 13.6886 111.169 13.9011 110.87 14.1774C110.55 14.4538 110.315 14.7726 110.165 15.1339C109.995 15.4953 109.93 15.8991 109.93 16.3243C109.93 16.7494 110.016 17.132 110.208 17.4721C110.379 17.7909 110.614 18.0885 110.913 18.3648C111.212 18.6199 111.532 18.8749 111.895 19.0875C112.258 19.3 112.642 19.5126 113.048 19.7039C113.433 19.8952 113.817 20.1077 114.201 20.299C114.564 20.4903 114.906 20.7029 115.184 20.9367C115.483 21.1705 115.696 21.4043 115.888 21.6807C116.059 21.957 116.144 22.2546 116.144 22.5947C116.144 22.871 116.08 23.126 115.952 23.3386C115.824 23.5512 115.653 23.7424 115.44 23.8912C115.226 24.04 114.991 24.1463 114.714 24.2313C114.436 24.3163 114.159 24.3376 113.881 24.3376C113.134 24.3376 112.493 24.125 111.938 23.7212C111.383 23.3173 110.998 22.7434 110.763 21.9995L109.738 22.4246C109.888 22.8497 110.08 23.2111 110.315 23.5299C110.55 23.8487 110.827 24.125 111.148 24.3589C111.468 24.5927 111.852 24.7627 112.279 24.869C112.706 24.9965 113.198 25.039 113.731 25.039C114.393 25.039 114.991 24.954 115.504 24.784C116.016 24.6139 116.443 24.3801 116.764 24.0825C117.105 23.785 117.362 23.4449 117.533 23.0623C117.703 22.6797 117.789 22.2546 117.789 21.8082C117.789 21.4256 117.703 21.0642 117.511 20.7454C117.362 20.4478 117.105 20.1503 116.806 19.8952Z" fill="#12171D"/>
<path d="M118.857 14.2837H122.957V24.8052H124.837V14.2837H128.937V13.561H118.857V14.2837Z" fill="#12171D"/>
<path d="M135.919 19.3425C136.325 19.2575 136.709 19.1087 137.03 18.9387C137.371 18.7686 137.67 18.5561 137.905 18.301C138.14 18.0672 138.332 17.7909 138.482 17.4721C138.61 17.1745 138.674 16.8344 138.674 16.4943C138.674 16.0692 138.588 15.6866 138.418 15.3252C138.247 14.9639 137.991 14.6451 137.649 14.39C137.307 14.1349 136.88 13.9224 136.368 13.7736C135.855 13.6248 135.257 13.561 134.574 13.561H130.688V24.8052H132.588V19.5126H133.912L137.841 24.8052H140.041L135.919 19.3425ZM134.852 18.7899C134.489 18.8962 134.104 18.9599 133.677 18.9599H132.588V14.2625H134.254C134.595 14.2625 134.916 14.3262 135.215 14.4325C135.514 14.5388 135.748 14.7088 135.962 14.9001C136.175 15.1127 136.325 15.3465 136.453 15.6228C136.581 15.8991 136.624 16.218 136.624 16.5368C136.624 16.8982 136.56 17.2382 136.41 17.5358C136.261 17.8334 136.047 18.0885 135.791 18.301C135.514 18.5136 135.215 18.6836 134.852 18.7899Z" fill="#12171D"/>
<path d="M149.286 24.0825H143.35V19.0237H147.322V18.301H143.35V14.2837H149.286V13.561H141.449V24.8052H149.286V24.0825Z" fill="#12171D"/>
<path d="M156.119 13.306L150.674 24.8052H151.635L153.407 21.0642H158.233L159.963 24.8052H161.885L156.568 13.306H156.119ZM153.749 20.3203L155.863 15.8779L157.913 20.3203H153.749Z" fill="#12171D"/>
<path d="M174.099 13.561L169.785 22.1908H169.7L165.301 13.561H163.379V24.8052H164.212V15.6653H164.34L169.016 24.8052H169.401L174.035 15.6016H174.099V24.8052H175.999V13.561H174.099Z" fill="#12171D"/>
</g>
<defs>
<clipPath id="clip0_30_220">
<rect width="176" height="43" fill="white"/>
</clipPath>
</defs>
</svg>
