<svg width="12" height="12" viewBox="0 0 12 12" fill="none" xmlns="http://www.w3.org/2000/svg">
<g clip-path="url(#clip0_32_359)">
<path d="M12 5V9.5C11.9992 10.1628 11.7356 10.7982 11.2669 11.2669C10.7982 11.7356 10.1628 11.9992 9.5 12H2.5C1.8372 11.9992 1.20178 11.7356 0.73311 11.2669C0.264441 10.7982 0.000793929 10.1628 0 9.5L0 4C0.000793929 3.3372 0.264441 2.70178 0.73311 2.23311C1.20178 1.76444 1.8372 1.50079 2.5 1.5H6.5C6.63261 1.5 6.75979 1.55268 6.85355 1.64645C6.94732 1.74021 7 1.86739 7 2C7 2.13261 6.94732 2.25979 6.85355 2.35355C6.75979 2.44732 6.63261 2.5 6.5 2.5H2.5C2.2281 2.50075 1.96156 2.57564 1.72906 2.7166C1.49656 2.85757 1.3069 3.05927 1.1805 3.3L4.939 7.059C5.22085 7.33954 5.60233 7.49703 6 7.49703C6.39767 7.49703 6.77915 7.33954 7.061 7.059L8.9715 5.15C9.0658 5.05892 9.1921 5.00852 9.3232 5.00966C9.4543 5.0108 9.57971 5.06339 9.67241 5.15609C9.76511 5.24879 9.8177 5.3742 9.81884 5.5053C9.81998 5.6364 9.76958 5.7627 9.6785 5.857L7.768 7.768C7.29862 8.23601 6.66283 8.49881 6 8.49881C5.33717 8.49881 4.70138 8.23601 4.232 7.768L1 4.5355V9.5C1 9.89782 1.15804 10.2794 1.43934 10.5607C1.72064 10.842 2.10218 11 2.5 11H9.5C9.89782 11 10.2794 10.842 10.5607 10.5607C10.842 10.2794 11 9.89782 11 9.5V5C11 4.86739 11.0527 4.74021 11.1464 4.64645C11.2402 4.55268 11.3674 4.5 11.5 4.5C11.6326 4.5 11.7598 4.55268 11.8536 4.64645C11.9473 4.74021 12 4.86739 12 5ZM8.5 2.5H9.5V3.5C9.5 3.63261 9.55268 3.75979 9.64645 3.85355C9.74021 3.94732 9.86739 4 10 4C10.1326 4 10.2598 3.94732 10.3536 3.85355C10.4473 3.75979 10.5 3.63261 10.5 3.5V2.5H11.5C11.6326 2.5 11.7598 2.44732 11.8536 2.35355C11.9473 2.25979 12 2.13261 12 2C12 1.86739 11.9473 1.74021 11.8536 1.64645C11.7598 1.55268 11.6326 1.5 11.5 1.5H10.5V0.5C10.5 0.367392 10.4473 0.240215 10.3536 0.146447C10.2598 0.0526784 10.1326 0 10 0C9.86739 0 9.74021 0.0526784 9.64645 0.146447C9.55268 0.240215 9.5 0.367392 9.5 0.5V1.5H8.5C8.36739 1.5 8.24021 1.55268 8.14645 1.64645C8.05268 1.74021 8 1.86739 8 2C8 2.13261 8.05268 2.25979 8.14645 2.35355C8.24021 2.44732 8.36739 2.5 8.5 2.5Z" fill="#909CAB"/>
</g>
<defs>
<clipPath id="clip0_32_359">
<rect width="12" height="12" fill="white"/>
</clipPath>
</defs>
</svg>
