<svg width="12" height="12" viewBox="0 0 12 12" fill="none" xmlns="http://www.w3.org/2000/svg">
<g clip-path="url(#clip0_32_320)">
<path d="M11.085 0.909988L10.56 0.454988C10.4162 0.311123 10.2455 0.196997 10.0576 0.119133C9.86974 0.0412678 9.66835 0.00119019 9.46497 0.00119019C9.26159 0.00119019 9.0602 0.0412678 8.87232 0.119133C8.68443 0.196997 8.51373 0.311123 8.36997 0.454988C8.35497 0.469988 7.42997 1.67499 7.42997 1.67499C7.15556 1.96365 7.00254 2.34671 7.00254 2.74499C7.00254 3.14327 7.15556 3.52633 7.42997 3.81499L8.00997 4.54499C7.27997 6.19999 6.14497 7.33999 4.54497 8.01999L3.81497 7.43499C3.52748 7.15829 3.14398 7.00372 2.74497 7.00372C2.34596 7.00372 1.96246 7.15829 1.67497 7.43499C1.67497 7.43499 0.469971 8.35999 0.454971 8.37499C-0.150029 8.97999 -0.150029 9.95999 0.429971 10.54L0.929971 11.115C1.50497 11.69 2.27997 12.005 3.11997 12.005C6.93997 12.005 12 6.93999 12 3.12499C12 2.28999 11.685 1.50999 11.085 0.914988V0.909988ZM3.11997 11C2.54997 11 2.02497 10.79 1.66497 10.425L1.16497 9.84999C1.06588 9.75048 1.00861 9.61684 1.00489 9.47646C1.00117 9.33608 1.05129 9.1996 1.14497 9.09499C1.14497 9.09499 2.33997 8.17499 2.35497 8.15999C2.55997 7.95499 2.91997 7.95499 3.12997 8.15999C3.14497 8.17499 4.14997 8.97999 4.14997 8.97999C4.28997 9.08999 4.47497 9.11999 4.63997 9.05499C6.70997 8.26499 8.19497 6.78499 9.04997 4.64999C9.11497 4.48499 9.08997 4.29499 8.97497 4.14999C8.97497 4.14999 8.16997 3.13999 8.15997 3.12999C7.94497 2.91499 7.94497 2.56999 8.15997 2.35499C8.17497 2.33999 9.09497 1.14499 9.09497 1.14499C9.30997 0.949988 9.64497 0.954988 9.87497 1.18499L10.4 1.63999C10.785 2.02499 11 2.54999 11 3.11999C11 6.59999 6.11497 11 3.11997 11Z" fill="#909CAB"/>
</g>
<defs>
<clipPath id="clip0_32_320">
<rect width="12" height="12" fill="white"/>
</clipPath>
</defs>
</svg>
