<svg width="16" height="16" viewBox="0 0 16 16" fill="none" xmlns="http://www.w3.org/2000/svg">
<path d="M14.826 13.8832L12.8467 11.9039C13.9311 10.5776 14.4643 8.88531 14.3359 7.17696C14.2075 5.4686 13.4275 3.87493 12.1571 2.72559C10.8866 1.57625 9.22307 0.959176 7.51043 1.002C5.7978 1.04482 4.16714 1.74426 2.95575 2.95566C1.74435 4.16705 1.04491 5.79771 1.00209 7.51034C0.959267 9.22297 1.57635 10.8866 2.72569 12.157C3.87503 13.4274 5.46869 14.2075 7.17705 14.3358C8.8854 14.4642 10.5777 13.931 11.904 12.8466L13.8833 14.8259C14.0091 14.9474 14.1775 15.0146 14.3523 15.013C14.5271 15.0115 14.6943 14.9414 14.8179 14.8178C14.9415 14.6942 15.0116 14.527 15.0131 14.3522C15.0146 14.1774 14.9474 14.009 14.826 13.8832ZM7.68801 13.0212C6.63317 13.0212 5.60203 12.7085 4.72496 12.1224C3.8479 11.5364 3.16432 10.7034 2.76065 9.72889C2.35698 8.75435 2.25136 7.682 2.45715 6.64743C2.66294 5.61287 3.17089 4.66256 3.91677 3.91668C4.66265 3.1708 5.61296 2.66285 6.64752 2.45706C7.68209 2.25127 8.75444 2.35689 9.72898 2.76056C10.7035 3.16422 11.5365 3.84781 12.1225 4.72487C12.7085 5.60193 13.0213 6.63308 13.0213 7.68791C13.0198 9.10191 12.4573 10.4575 11.4575 11.4574C10.4576 12.4572 9.10201 13.0197 7.68801 13.0212Z" fill="#909CAB"/>
</svg>
