<svg width="48" height="48" viewBox="0 0 48 48" fill="none" xmlns="http://www.w3.org/2000/svg">
<rect width="48" height="48" rx="24" fill="#1D2229"/>
<path d="M21.4726 19.9177C21.4101 19.9797 21.3605 20.0534 21.3267 20.1346C21.2928 20.2159 21.2754 20.303 21.2754 20.391C21.2754 20.479 21.2928 20.5662 21.3267 20.6474C21.3605 20.7287 21.4101 20.8024 21.4726 20.8644L24.5259 23.9177C24.5884 23.9797 24.638 24.0534 24.6718 24.1346C24.7057 24.2159 24.7231 24.303 24.7231 24.391C24.7231 24.479 24.7057 24.5662 24.6719 24.6474C24.638 24.7287 24.5884 24.8024 24.5259 24.8644L21.4726 27.9177C21.4101 27.9797 21.3605 28.0534 21.3267 28.1346C21.2928 28.2159 21.2754 28.303 21.2754 28.391C21.2754 28.479 21.2928 28.5662 21.3267 28.6474C21.3605 28.7287 21.4101 28.8024 21.4726 28.8644C21.5975 28.9885 21.7665 29.0582 21.9426 29.0582C22.1187 29.0582 22.2877 28.9885 22.4126 28.8644L25.4726 25.8044C25.8471 25.4294 26.0575 24.921 26.0575 24.391C26.0575 23.861 25.8471 23.3527 25.4726 22.9777L22.4126 19.9177C22.2877 19.7935 22.1187 19.7238 21.9426 19.7238C21.7665 19.7238 21.5975 19.7935 21.4726 19.9177Z" fill="white"/>
</svg>
