<svg width="17" height="16" viewBox="0 0 17 16" fill="none" xmlns="http://www.w3.org/2000/svg">
<g clip-path="url(#clip0_2105_1835)">
<path d="M15.8332 2.66667H11.8332V1.33333C11.8332 0.598 11.2352 0 10.4998 0H6.49984C5.7645 0 5.1665 0.598 5.1665 1.33333V2.66667H1.1665V4H2.2625L3.39784 14.2207C3.45215 14.7099 3.68499 15.162 4.05179 15.4903C4.41859 15.8186 4.89358 16.0001 5.38584 16H11.5885C12.0809 16.0006 12.5561 15.8193 12.9229 15.4909C13.2897 15.1625 13.5222 14.7101 13.5758 14.2207L14.7112 4H15.8325L15.8332 2.66667ZM6.49984 1.33333H10.4998V2.66667H6.49984V1.33333ZM12.2505 14.0733C12.2325 14.2365 12.1549 14.3872 12.0326 14.4967C11.9103 14.6061 11.752 14.6667 11.5878 14.6667H5.38584C5.22172 14.6667 5.06336 14.6061 4.94109 14.4967C4.81882 14.3872 4.74122 14.2365 4.72317 14.0733L3.60384 4H13.3705L12.2512 14.0733H12.2505ZM5.86184 11.0287L7.55717 9.33333L5.86184 7.638L6.8045 6.69533L8.49984 8.39067L10.1952 6.69533L11.1378 7.638L9.4425 9.33333L11.1378 11.0287L10.1952 11.9713L8.49984 10.276L6.8045 11.9713L5.86184 11.0287Z" fill="#FF543E"/>
</g>
<defs>
<clipPath id="clip0_2105_1835">
<rect width="16" height="16" fill="white" transform="translate(0.5)"/>
</clipPath>
</defs>
</svg>
