<svg width="16" height="16" viewBox="0 0 16 16" fill="none" xmlns="http://www.w3.org/2000/svg">
<g clip-path="url(#clip0_39_5006)">
<mask id="mask0_39_5006" style="mask-type:luminance" maskUnits="userSpaceOnUse" x="0" y="0" width="16" height="16">
<path d="M15.7769 0.113983H0.179688V16H15.7769V0.113983Z" fill="white"/>
</mask>
<g mask="url(#mask0_39_5006)">
<path d="M7.65335 16H8.30324C11.8386 16 13.5998 16 14.6916 14.888C15.7769 13.776 15.7769 11.9756 15.7769 8.38796V7.71281C15.7769 4.13844 15.7769 2.33803 14.6916 1.22601C13.5998 0.113983 11.8321 0.113983 8.30324 0.113983H7.65335C4.11799 0.113983 2.3568 0.113983 1.26499 1.22601C0.179688 2.33803 0.179688 4.13844 0.179688 7.72603V8.4012C0.179688 11.9756 0.179687 13.776 1.27149 14.888C2.3633 16 4.13097 16 7.65335 16Z" fill="#0077FF"/>
<path d="M8.47947 11.5585C4.92462 11.5585 2.89698 9.07635 2.8125 4.94598H4.59319C4.65166 7.97757 5.96444 9.26169 7.00424 9.52646V4.94598H8.68095V7.56056C9.70778 7.44806 10.7866 6.25659 11.1505 4.94598H12.8272C12.6901 5.62572 12.4167 6.26927 12.0242 6.83647C11.6317 7.40367 11.1285 7.88228 10.5461 8.24234C11.1962 8.57135 11.7704 9.03704 12.2308 9.60868C12.6913 10.1803 13.0274 10.8449 13.2171 11.5585H11.3715C11.2012 10.9387 10.855 10.3838 10.3764 9.96344C9.89777 9.54308 9.30798 9.27594 8.68095 9.1955V11.5585H8.47947Z" fill="white"/>
</g>
</g>
<defs>
<clipPath id="clip0_39_5006">
<rect width="16" height="16" fill="white"/>
</clipPath>
</defs>
</svg>
