<svg width="16" height="16" viewBox="0 0 16 16" fill="none" xmlns="http://www.w3.org/2000/svg">
<g clip-path="url(#clip0_32_380)">
<path d="M8.002 0H7.998C3.587 0 0 3.588 0 8C0 9.75 0.564 11.372 1.523 12.689L0.526 15.661L3.601 14.678C4.866 15.516 6.375 16 8.002 16C12.413 16 16 12.411 16 8C16 3.589 12.413 0 8.002 0Z" fill="#4CAF50"/>
<path d="M12.6566 11.297C12.4636 11.842 11.6976 12.294 11.0866 12.426C10.6686 12.515 10.1226 12.586 8.28456 11.824C5.93356 10.85 4.41956 8.461 4.30156 8.306C4.18856 8.151 3.35156 7.041 3.35156 5.893C3.35156 4.745 3.93456 4.186 4.16956 3.946C4.36256 3.749 4.68156 3.659 4.98756 3.659C5.08656 3.659 5.17556 3.664 5.25556 3.668C5.49056 3.678 5.60856 3.692 5.76356 4.063C5.95656 4.528 6.42656 5.676 6.48256 5.794C6.53956 5.912 6.59656 6.072 6.51656 6.227C6.44156 6.387 6.37556 6.458 6.25756 6.594C6.13956 6.73 6.02756 6.834 5.90956 6.98C5.80156 7.107 5.67956 7.243 5.81556 7.478C5.95156 7.708 6.42156 8.475 7.11356 9.091C8.00656 9.886 8.73056 10.14 8.98956 10.248C9.18256 10.328 9.41256 10.309 9.55356 10.159C9.73256 9.966 9.95356 9.646 10.1786 9.331C10.3386 9.105 10.5406 9.077 10.7526 9.157C10.9686 9.232 12.1116 9.797 12.3466 9.914C12.5816 10.032 12.7366 10.088 12.7936 10.187C12.8496 10.286 12.8496 10.751 12.6566 11.297Z" fill="#FAFAFA"/>
</g>
<defs>
<clipPath id="clip0_32_380">
<rect width="16" height="16" fill="white"/>
</clipPath>
</defs>
</svg>
